<svg height="480pt" viewBox="-8 0 480 480" width="480pt" xmlns="http://www.w3.org/2000/svg" xmlns:xlink="http://www.w3.org/1999/xlink"><linearGradient id="a"><stop offset="0" stop-color="#fff200"/><stop offset="1" stop-color="#cd118c"/></linearGradient><linearGradient id="b" gradientUnits="userSpaceOnUse" x1="-8.904" x2="487.096" xlink:href="#a" y1="454.984" y2="14.984"/><linearGradient id="c" gradientUnits="userSpaceOnUse" x1="-112.792" x2="383.208" xlink:href="#a" y1="337.864" y2="-102.136"/><linearGradient id="d" gradientUnits="userSpaceOnUse" x1="-143.536" x2="352.464" xlink:href="#a" y1="303.216" y2="-136.784"/><linearGradient id="e" gradientUnits="userSpaceOnUse" x1="-139.432" x2="356.568" xlink:href="#a" y1="307.84" y2="-132.16"/><linearGradient id="f" gradientUnits="userSpaceOnUse" x1="-101.584" x2="394.416" xlink:href="#a" y1="350.504" y2="-89.496"/><linearGradient id="g" gradientUnits="userSpaceOnUse" x1="-40.144" x2="455.856" xlink:href="#a" y1="419.768" y2="-20.232"/><linearGradient id="h" gradientUnits="userSpaceOnUse" x1="112.416" x2="608.416" xlink:href="#a" y1="591.736" y2="151.736"/><linearGradient id="i" gradientUnits="userSpaceOnUse" x1="74.568" x2="570.568" xlink:href="#a" y1="549.08" y2="109.08"/><linearGradient id="j" gradientUnits="userSpaceOnUse" x1="13.128" x2="509.128" xlink:href="#a" y1="479.816" y2="39.816"/><linearGradient id="k" gradientUnits="userSpaceOnUse" x1="-55.456" x2="440.544" xlink:href="#a" y1="402.504" y2="-37.496"/><linearGradient id="l" gradientUnits="userSpaceOnUse" x1="-13.536" x2="482.464" xlink:href="#a" y1="449.76" y2="9.76"/><linearGradient id="m" gradientUnits="userSpaceOnUse" x1="83.792" x2="579.792" xlink:href="#a" y1="559.472" y2="119.472"/><linearGradient id="n" gradientUnits="userSpaceOnUse" x1="-75.312" x2="420.688" xlink:href="#a" y1="380.12" y2="-59.88"/><linearGradient id="o" gradientUnits="userSpaceOnUse" x1="31.936" x2="527.936" xlink:href="#a" y1="501.024" y2="61.024"/><path d="m294.496094 236.609375c-1.242188-1.734375-3.121094-2.898437-5.222656-3.238281-2.101563-.339844-4.253907.171875-5.976563 1.421875l-14.023437 10.070312-13.992188-10.070312c-2.792969-2.007813-6.554688-2.007813-9.34375 0l-13.984375 10.0625-13.992187-10.0625c-2.792969-2.007813-6.554688-2.007813-9.34375 0l-13.984376 10.0625-13.953124-10.0625c-3.585938-2.585938-8.585938-1.773438-11.171876 1.8125-2.585937 3.582031-1.773437 8.585937 1.8125 11.171875l18.632813 13.429687c2.792969 2.011719 6.558594 2.011719 9.351563 0l13.984374-10.0625 13.992188 10.0625c2.789062 2.007813 6.550781 2.007813 9.34375 0l13.992188-10.0625 14.015624 10.0625c2.789063 2.007813 6.550782 2.007813 9.34375 0l18.695313-13.421875c1.726563-1.238281 2.886719-3.113281 3.230469-5.210937.339844-2.097657-.164063-4.242188-1.40625-5.964844zm0 0" fill="url(#b)"/><path d="m232 64c4.417969 0 8-3.582031 8-8v-48c0-4.417969-3.582031-8-8-8s-8 3.582031-8 8v48c0 4.417969 3.582031 8 8 8zm0 0" fill="url(#c)"/><path d="m137.070312 83.574219c1.421876 2.496093 4.066407 4.042969 6.9375 4.046875 2.871094.007812 5.527344-1.523438 6.957032-4.015625 1.429687-2.488281 1.414062-5.554688-.035156-8.03125l-24-41.597657c-1.421876-2.496093-4.066407-4.039062-6.9375-4.046874-2.871094-.007813-5.527344 1.527343-6.957032 4.015624-1.429687 2.488282-1.414062 5.554688.035156 8.03125zm0 0" fill="url(#d)"/><path d="m34.007812 126.929688 41.601563 24c3.820313 2.171874 8.683594.851562 10.878906-2.957032 2.199219-3.808594.914063-8.675781-2.878906-10.902344l-41.601563-24c-3.824218-2.171874-8.683593-.851562-10.882812 2.957032s-.910156 8.675781 2.882812 10.902344zm0 0" fill="url(#e)"/><path d="m64 232c0-4.417969-3.582031-8-8-8h-48c-4.417969 0-8 3.582031-8 8s3.582031 8 8 8h48c4.417969 0 8-3.582031 8-8zm0 0" fill="url(#f)"/><path d="m75.574219 313.070312-41.597657 24c-2.496093 1.421876-4.039062 4.066407-4.046874 6.9375-.007813 2.871094 1.527343 5.527344 4.015624 6.957032 2.488282 1.429687 5.554688 1.414062 8.03125-.035156l41.597657-24c2.496093-1.421876 4.042969-4.066407 4.046875-6.9375.007812-2.871094-1.523438-5.527344-4.015625-6.957032-2.488281-1.429687-5.554688-1.414062-8.03125.035156zm0 0" fill="url(#g)"/><path d="m429.992188 337.070312-41.601563-24c-2.476563-1.449218-5.539063-1.464843-8.027344-.035156-2.492187 1.429688-4.023437 4.085938-4.015625 6.957032.003906 2.871093 1.546875 5.515624 4.042969 6.9375l41.601563 24c3.824218 2.171874 8.683593.851562 10.882812-2.957032s.910156-8.675781-2.882812-10.902344zm0 0" fill="url(#h)"/><path d="m456 224h-48c-4.417969 0-8 3.582031-8 8s3.582031 8 8 8h48c4.417969 0 8-3.582031 8-8s-3.582031-8-8-8zm0 0" fill="url(#i)"/><path d="m384.433594 152c1.402344.003906 2.785156-.367188 4-1.070312l41.597656-24c3.792969-2.226563 5.082031-7.09375 2.882812-10.902344-2.199218-3.808594-7.058593-5.128906-10.882812-2.957032l-41.597656 24c-3.136719 1.8125-4.664063 5.503907-3.730469 9 .9375 3.496094 4.109375 5.929688 7.730469 5.929688zm0 0" fill="url(#j)"/><path d="m316 86.503906c3.828125 2.210938 8.71875.898438 10.929688-2.929687l24-41.597657c1.449218-2.476562 1.464843-5.542968.035156-8.03125-1.429688-2.488281-4.085938-4.023437-6.957032-4.015624-2.871093.007812-5.515624 1.550781-6.9375 4.046874l-24 41.597657c-2.207031 3.828125-.894531 8.71875 2.929688 10.929687zm0 0" fill="url(#k)"/><path d="m232 80c-68.78125-.03125-129 46.148438-146.808594 112.582031-17.808594 66.433594 11.234375 136.546875 70.808594 170.921875 3.808594 2.050782 8.554688.703125 10.71875-3.042968 2.164062-3.746094.957031-8.53125-2.71875-10.804688-53.308594-30.777344-79.296875-93.523438-63.367188-152.980469 15.933594-59.457031 69.8125-100.800781 131.367188-100.800781s115.433594 41.34375 131.367188 100.800781c15.929687 59.457031-10.058594 122.203125-63.367188 152.980469-3.675781 2.273438-4.882812 7.058594-2.71875 10.804688 2.164062 3.746093 6.910156 5.09375 10.71875 3.042968 59.574219-34.375 88.617188-104.488281 70.808594-170.921875-17.808594-66.433593-78.027344-112.613281-146.808594-112.582031zm0 0" fill="url(#l)"/><path d="m304 384c0-4.417969-3.582031-8-8-8h-128c-4.417969 0-8 3.582031-8 8s3.582031 8 8 8v72c-4.417969 0-8 3.582031-8 8s3.582031 8 8 8h128c4.417969 0 8-3.582031 8-8s-3.582031-8-8-8v-72c4.417969 0 8-3.582031 8-8zm-24 80h-96v-72h96zm0 0" fill="url(#m)"/><path d="m232 112c-66.242188.074219-119.925781 53.757812-120 120 0 4.417969 3.582031 8 8 8s8-3.582031 8-8c.066406-57.410156 46.589844-103.933594 104-104 4.417969 0 8-3.582031 8-8s-3.582031-8-8-8zm0 0" fill="url(#n)"/><path d="m192 272c-4.417969 0-8 3.582031-8 8v72c-4.417969 0-8 3.582031-8 8s3.582031 8 8 8h96c4.417969 0 8-3.582031 8-8s-3.582031-8-8-8v-72c0-4.417969-3.582031-8-8-8s-8 3.582031-8 8v72h-64v-72c0-4.417969-3.582031-8-8-8zm0 0" fill="url(#o)"/></svg>